<svg width="51" height="51" viewBox="0 0 51 51" fill="none" xmlns="http://www.w3.org/2000/svg">
<g clip-path="url(#clip0)">
<path d="M49.932 14.7097C49.8103 12.0485 49.3877 10.2312 48.7697 8.64124C48.1422 6.97307 47.158 5.46207 45.8862 4.21313C44.6376 2.94131 43.1262 1.95674 41.4581 1.32884C39.8677 0.711243 38.0508 0.288956 35.3896 0.16803C32.7235 0.0459595 31.8717 0.0169678 25.0823 0.0169678C18.2929 0.0169678 17.4411 0.0459595 14.775 0.167267C12.1139 0.288956 10.2969 0.711624 8.70659 1.32961C7.03842 1.95712 5.52742 2.94131 4.27849 4.21313C3.00667 5.46169 2.02209 6.97269 1.3942 8.64085C0.776596 10.2312 0.354309 12.0485 0.233383 14.7093C0.111313 17.3757 0.0823212 18.2272 0.0823212 25.0166C0.0823212 31.8064 0.111313 32.6582 0.233383 35.3243C0.35469 37.985 0.777359 39.8024 1.39534 41.3927C2.02286 43.0605 3.00705 44.5719 4.27887 45.8204C5.52742 47.0922 7.0388 48.0764 8.70697 48.7039C10.2969 49.3223 12.1143 49.7446 14.7754 49.8663C17.4419 49.988 18.2933 50.0166 25.0827 50.0166C31.8721 50.0166 32.7239 49.988 35.39 49.8663C38.0511 49.7446 39.8681 49.3223 41.4584 48.7039C44.8165 47.4054 47.4712 44.7508 48.7697 41.3927C49.388 39.8024 49.8103 37.985 49.932 35.3243C50.0533 32.6578 50.0823 31.8064 50.0823 25.017C50.0823 18.2272 50.0533 17.3757 49.932 14.7097ZM45.4318 35.1194C45.3208 37.557 44.9134 38.8807 44.5712 39.7615C43.7301 41.942 42.007 43.6651 39.8265 44.5063C38.9457 44.8484 37.622 45.2558 35.1844 45.3669C32.5488 45.4874 31.758 45.5126 25.0823 45.5126C18.4062 45.5126 17.6158 45.4874 14.9799 45.3669C12.5426 45.2558 11.2189 44.8484 10.3378 44.5063C9.25209 44.1053 8.26981 43.4664 7.46338 42.6359C6.63292 41.8295 5.99396 40.8476 5.59303 39.7615C5.25085 38.8807 4.84344 37.557 4.73244 35.1194C4.61227 32.4835 4.58672 31.6927 4.58672 25.0173C4.58672 18.3416 4.61227 17.5512 4.73244 14.9149C4.84383 12.4773 5.25085 11.1536 5.59303 10.2728C5.99396 9.18674 6.6333 8.20445 7.46338 7.39803C8.26981 6.56757 9.25209 5.9286 10.3381 5.52806C11.2189 5.1855 12.5426 4.77847 14.9802 4.66708C17.6162 4.54692 18.407 4.52136 25.0823 4.52136H25.0819C31.7573 4.52136 32.5481 4.54692 35.1844 4.66747C37.622 4.77847 38.9453 5.18588 39.8265 5.52806C40.9122 5.92899 41.8945 6.56795 42.7009 7.39803C43.5313 8.20445 44.1703 9.18674 44.5708 10.2728C44.9134 11.1536 45.3208 12.4773 45.4318 14.9149C45.552 17.5508 45.5775 18.3416 45.5775 25.017C45.5775 31.6927 45.5524 32.4831 45.4318 35.1194Z" fill="url(#paint0_linear)"/>
<path d="M25.0819 12.179C17.9919 12.179 12.2443 17.927 12.2443 25.017C12.2443 32.107 17.9919 37.8546 25.0819 37.8546C32.1723 37.8546 37.9199 32.107 37.9199 25.017C37.9199 17.927 32.1723 12.179 25.0819 12.179ZM25.0819 33.3502C20.4799 33.3498 16.7487 29.619 16.7491 25.0166C16.7491 20.4145 20.4799 16.6834 25.0823 16.6834C29.6847 16.6838 33.4155 20.4145 33.4155 25.0166C33.4155 29.619 29.6844 33.3502 25.0819 33.3502Z" fill="url(#paint1_linear)"/>
<path d="M41.4271 11.672C41.4271 13.3287 40.084 14.6719 38.4273 14.6719C36.7702 14.6719 35.427 13.3287 35.427 11.672C35.427 10.0149 36.7702 8.67175 38.4273 8.67175C40.084 8.67175 41.4271 10.0149 41.4271 11.672Z" fill="url(#paint2_linear)"/>
</g>
<defs>
<linearGradient id="paint0_linear" x1="4.27823" y1="45.8206" x2="45.8864" y2="4.21248" gradientUnits="userSpaceOnUse">
<stop stop-color="#FFD600"/>
<stop offset="0.5" stop-color="#FF0100"/>
<stop offset="1" stop-color="#D800B9"/>
</linearGradient>
<linearGradient id="paint1_linear" x1="16.0045" y1="34.0945" x2="34.1598" y2="15.9391" gradientUnits="userSpaceOnUse">
<stop stop-color="#FF6400"/>
<stop offset="0.5" stop-color="#FF0100"/>
<stop offset="1" stop-color="#FD0056"/>
</linearGradient>
<linearGradient id="paint2_linear" x1="36.3059" y1="13.7931" x2="40.5484" y2="9.55056" gradientUnits="userSpaceOnUse">
<stop stop-color="#F30072"/>
<stop offset="1" stop-color="#E50097"/>
</linearGradient>
<clipPath id="clip0">
<rect width="50" height="50" fill="white" transform="translate(0.0823212 0.0169678)"/>
</clipPath>
</defs>
</svg>
