<svg width="51" height="51" viewBox="0 0 51 51" fill="none" xmlns="http://www.w3.org/2000/svg">
<g clip-path="url(#clip0)">
<path d="M25.082 50.0167C38.889 50.0167 50.0817 38.8239 50.0817 25.017C50.0817 11.21 38.889 0.0172577 25.082 0.0172577C11.2751 0.0172577 0.0823364 11.21 0.0823364 25.017C0.0823364 38.8239 11.2751 50.0167 25.082 50.0167Z" fill="#41B4E6"/>
<path d="M50.0823 25.0173C50.0823 24.4081 50.0594 23.8045 50.0166 23.2061L39.6554 12.8451L10.5093 24.3098L21.6607 35.4614L21.807 35.988L21.9964 35.7971L21.9972 35.7978L21.807 35.988L34.1427 48.3236C43.4708 44.6947 50.0823 35.6286 50.0823 25.0173Z" fill="#0091C8"/>
<path d="M22.6544 28.6595L33.9524 37.1895L39.6554 12.8451L10.5092 24.3098L19.378 27.2474L35.5639 16.3904L22.6544 28.6595Z" fill="white"/>
<path d="M19.3781 27.2474L21.8071 35.9881L22.6544 28.6595L35.5639 16.3904L19.3781 27.2474Z" fill="#D2D2D7"/>
<path d="M26.3263 31.4318L21.807 35.9881L22.6544 28.6595L26.3263 31.4318Z" fill="#B9B9BE"/>
</g>
<defs>
<clipPath id="clip0">
<rect width="50" height="50" fill="white" transform="translate(0.0823364 0.0169678)"/>
</clipPath>
</defs>
</svg>
