<svg width="51" height="51" viewBox="0 0 51 51" fill="none" xmlns="http://www.w3.org/2000/svg">
<g clip-path="url(#clip0)">
<path d="M25.0823 50.017C38.8895 50.017 50.0823 38.8241 50.0823 25.017C50.0823 11.2098 38.8895 0.0169678 25.0823 0.0169678C11.2752 0.0169678 0.0823364 11.2098 0.0823364 25.017C0.0823364 38.8241 11.2752 50.017 25.0823 50.017Z" fill="#4D76A1"/>
<path fill-rule="evenodd" clip-rule="evenodd" d="M24.138 35.9817H26.1002C26.1002 35.9817 26.6929 35.9166 26.9955 35.5904C27.2741 35.2909 27.2651 34.7285 27.2651 34.7285C27.2651 34.7285 27.2268 32.0956 28.4488 31.7079C29.6534 31.326 31.2002 34.2526 32.8398 35.3778C34.0796 36.2295 35.0217 36.0428 35.0217 36.0428L39.4055 35.9817C39.4055 35.9817 41.6988 35.8404 40.6114 34.0373C40.5223 33.8898 39.9782 32.7035 37.352 30.2658C34.6032 27.7145 34.9713 28.1271 38.2825 23.7139C40.299 21.0262 41.1052 19.3853 40.8534 18.6825C40.6132 18.0131 39.1301 18.1901 39.1301 18.1901L34.1941 18.2208C34.1941 18.2208 33.8282 18.1709 33.5568 18.3331C33.2917 18.4922 33.121 18.863 33.121 18.863C33.121 18.863 32.3397 20.9428 31.2978 22.7116C29.0999 26.4439 28.2211 26.6409 27.8619 26.4092C27.0263 25.869 27.2348 24.2393 27.2348 23.0815C27.2348 19.4646 27.7834 17.9565 26.1666 17.5662C25.6301 17.4365 25.2352 17.3509 23.8631 17.3371C22.1019 17.3188 20.6112 17.3424 19.7671 17.756C19.2056 18.031 18.7724 18.6437 19.0362 18.6789C19.3625 18.7226 20.1013 18.8781 20.4931 19.4116C20.9989 20.0997 20.9811 21.6452 20.9811 21.6452C20.9811 21.6452 21.2716 25.9029 20.3023 26.4319C19.637 26.7947 18.7243 26.054 16.7648 22.6679C15.7607 20.9335 15.0027 19.0163 15.0027 19.0163C15.0027 19.0163 14.8565 18.658 14.5958 18.4664C14.2794 18.2342 13.8373 18.1602 13.8373 18.1602L9.14685 18.191C9.14685 18.191 8.44273 18.2106 8.18425 18.5167C7.9543 18.789 8.16598 19.3523 8.16598 19.3523C8.16598 19.3523 11.8381 27.9435 15.996 32.273C19.8086 36.2424 24.138 35.9817 24.138 35.9817Z" fill="white"/>
</g>
<defs>
<clipPath id="clip0">
<rect width="50" height="50" fill="white" transform="translate(0.0823364 0.0169678)"/>
</clipPath>
</defs>
</svg>
