<svg width="51" height="51" viewBox="0 0 51 51" fill="none" xmlns="http://www.w3.org/2000/svg">
<g clip-path="url(#clip0)">
<path d="M1.24392 50.017C0.963156 50.017 0.690023 49.906 0.487463 49.7011C0.220434 49.431 0.117437 49.0389 0.217764 48.6723L3.46827 36.8025C1.44457 33.143 0.3776 29.0033 0.379125 24.8011C0.384848 11.1349 11.5062 0.0169678 25.1712 0.0169678C31.7993 0.0196381 38.0271 2.60143 42.7082 7.28587C47.3884 11.9707 49.9649 18.1982 49.963 24.8209C49.9569 38.4874 38.8355 49.6061 25.1712 49.6061C25.1712 49.6061 25.1609 49.6061 25.1605 49.6061C21.1692 49.6046 17.2122 48.6319 13.689 46.7894L1.51362 49.9823C1.42435 50.0055 1.33356 50.017 1.24392 50.017Z" fill="#E5E5E5"/>
<path d="M1.2439 48.953L4.60999 36.6609C2.53365 33.0633 1.4415 28.9823 1.44302 24.8014C1.44836 11.722 12.0921 1.08089 25.1712 1.08089C31.5181 1.08356 37.4755 3.55396 41.9555 8.03775C46.4351 12.5215 48.9013 18.4816 48.899 24.8205C48.8933 37.8996 38.248 48.5422 25.1712 48.5422C25.1704 48.5422 25.1716 48.5422 25.1712 48.5422H25.1609C21.1898 48.5407 17.2881 47.5447 13.8225 45.6545L1.2439 48.953ZM14.405 41.3603L15.1256 41.7871C18.1529 43.5839 21.6239 44.5341 25.1636 44.536H25.1712C36.0408 44.536 44.8878 35.6905 44.8924 24.819C44.8943 19.5505 42.8451 14.5964 39.1216 10.8698C35.3976 7.1432 30.4465 5.08975 25.1785 5.08746C14.3001 5.08746 5.45341 13.9318 5.44922 24.803C5.44769 28.5284 6.48987 32.1562 8.46436 35.2957L8.93356 36.0418L6.94077 43.3172L14.405 41.3603Z" fill="white"/>
<path d="M2.06903 48.1249L5.31877 36.2577C3.31377 32.7848 2.25977 28.8446 2.26091 24.8091C2.26587 12.1824 12.5415 1.90982 25.167 1.90982C31.295 1.91249 37.0464 4.29744 41.3703 8.62598C45.6954 12.9545 48.0758 18.7082 48.0735 24.827C48.0682 37.454 37.7921 47.7278 25.1682 47.7278C25.167 47.7278 25.1685 47.7278 25.1682 47.7278H25.1579C21.3245 47.7262 17.5575 46.7642 14.212 44.9408L2.06903 48.1249Z" fill="#64B161"/>
<path d="M1.2439 48.953L4.60999 36.6609C2.53365 33.0633 1.4415 28.9823 1.44302 24.8014C1.44836 11.722 12.0921 1.08089 25.1712 1.08089C31.5181 1.08356 37.4755 3.55396 41.9555 8.03775C46.4351 12.5215 48.9013 18.4816 48.899 24.8205C48.8933 37.8996 38.248 48.5422 25.1712 48.5422C25.1704 48.5422 25.1716 48.5422 25.1712 48.5422H25.1609C21.1898 48.5407 17.2881 47.5447 13.8225 45.6545L1.2439 48.953ZM14.405 41.3603L15.1256 41.7871C18.1529 43.5839 21.6239 44.5341 25.1636 44.536H25.1712C36.0408 44.536 44.8878 35.6905 44.8924 24.819C44.8943 19.5505 42.8451 14.5964 39.1216 10.8698C35.3976 7.1432 30.4465 5.08975 25.1785 5.08746C14.3001 5.08746 5.45341 13.9318 5.44922 24.803C5.44769 28.5284 6.48987 32.1562 8.46436 35.2957L8.93356 36.0418L6.94077 43.3172L14.405 41.3603Z" fill="white"/>
<path fill-rule="evenodd" clip-rule="evenodd" d="M19.2409 14.8848C18.7968 13.8975 18.3291 13.8777 17.9065 13.8605C17.5609 13.8456 17.1653 13.8464 16.7705 13.8464C16.3753 13.8464 15.7329 13.9952 15.1897 14.5884C14.6461 15.1815 13.1141 16.6159 13.1141 19.533C13.1141 22.4504 15.2389 25.2691 15.5353 25.6651C15.8317 26.0607 19.6368 32.2382 25.6629 34.6147C30.6712 36.59 31.6901 36.1971 32.7773 36.0983C33.8645 35.9995 36.2849 34.664 36.7789 33.2796C37.2733 31.8953 37.2733 30.7089 37.1249 30.4605C36.9765 30.2137 36.5813 30.0653 35.9885 29.7689C35.3957 29.4725 32.4809 28.0378 31.9373 27.8402C31.3937 27.6422 30.9985 27.5438 30.6033 28.1374C30.2077 28.7302 29.0725 30.0653 28.7265 30.4605C28.3805 30.8569 28.0345 30.9065 27.4417 30.6097C26.8489 30.3125 24.9392 29.6869 22.6741 27.667C20.9117 26.0958 19.7215 24.1549 19.3755 23.5613C19.0299 22.9685 19.3698 22.6755 19.6361 22.3516C20.1156 21.7684 20.9201 20.7197 21.1177 20.3245C21.3153 19.9285 21.2165 19.5826 21.0685 19.2858C20.9201 18.9894 19.7677 16.0574 19.2409 14.8848Z" fill="white"/>
</g>
<defs>
<clipPath id="clip0">
<rect width="50" height="50" fill="white" transform="translate(0.0823364 0.0169678)"/>
</clipPath>
</defs>
</svg>
